<svg xmlns="http://www.w3.org/2000/svg" xmlns:xlink="http://www.w3.org/1999/xlink" contentStyleType="text/css" data-diagram-type="DESCRIPTION" height="765px" preserveAspectRatio="none" style="width:1025px;height:765px;background:#FFFFFF;" version="1.1" viewBox="0 0 1025 765" width="1025px" zoomAndPan="magnify"><?plantuml 1.2026.4?><defs/><g><!--cluster Signal K Server--><g class="cluster" data-qualified-name="Signal K Server" data-source-line="6" id="ent0001"><path d="M8.5,11 L135.9307,11 A3.75,3.75 0 0 1 138.4307,13.5 L145.4307,33.2969 L553.5,33.2969 A2.5,2.5 0 0 1 556,35.7969 L556,280.5 A2.5,2.5 0 0 1 553.5,283 L8.5,283 A2.5,2.5 0 0 1 6,280.5 L6,13.5 A2.5,2.5 0 0 1 8.5,11" fill="none" style="stroke:#000000;stroke-width:1.5;"/><line style="stroke:#000000;stroke-width:1.5;" x1="6" x2="145.4307" y1="33.2969" y2="33.2969"/><text fill="#000000" font-family="monospace" font-size="14" font-weight="700" lengthAdjust="spacing" textLength="126.4307" x="10" y="25.9951">Signal&#160;K&#160;Server</text></g><!--entity store--><g class="entity" data-qualified-name="Signal K Server.store" data-source-line="7" id="ent0002"><rect fill="#F1F1F1" height="36.2969" rx="2.5" ry="2.5" style="stroke:#181818;stroke-width:0.5;" width="121.1445" x="139.5" y="46"/><text fill="#000000" font-family="monospace" font-size="14" lengthAdjust="spacing" textLength="101.1445" x="149.5" y="68.9951">Vessel&#160;Store</text></g><!--entity n2k_out--><g class="entity" data-qualified-name="Signal K Server.n2k_out" data-source-line="8" id="ent0003"><rect fill="#F1F1F1" height="52.5938" rx="2.5" ry="2.5" style="stroke:#181818;stroke-width:0.5;" width="306.5762" x="212.5" y="214"/><text fill="#000000" font-family="monospace" font-size="14" lengthAdjust="spacing" textLength="160.1455" x="222.5" y="236.9951">N2K&#160;Output&#160;Provider</text><text fill="#000000" font-family="monospace" font-size="14" lengthAdjust="spacing" textLength="286.5762" x="222.5" y="253.292">(canboat-js&#160;/&#160;signalk-to-nmea2000)</text></g><!--entity nmea_out--><g class="entity" data-qualified-name="Signal K Server.nmea_out" data-source-line="9" id="ent0004"><rect fill="#F1F1F1" height="52.5938" rx="2.5" ry="2.5" style="stroke:#181818;stroke-width:0.5;" width="154.8594" x="22.5" y="214"/><text fill="#000000" font-family="monospace" font-size="14" lengthAdjust="spacing" textLength="134.8594" x="32.5" y="236.9951">NMEA&#160;0183&#160;Output</text><text fill="#000000" font-family="monospace" font-size="14" lengthAdjust="spacing" textLength="101.1445" x="32.5" y="253.292">(TCP/serial)</text></g><!--entity notif--><g class="entity" data-qualified-name="Signal K Server.notif" data-source-line="10" id="ent0005"><rect fill="#F1F1F1" height="36.2969" rx="2.5" ry="2.5" style="stroke:#181818;stroke-width:0.5;" width="180.1455" x="332" y="46"/><text fill="#000000" font-family="monospace" font-size="14" lengthAdjust="spacing" textLength="160.1455" x="342" y="68.9951">Notification&#160;System</text></g><!--entity safehelm--><g class="entity" data-qualified-name="safehelm" data-source-line="13" id="ent0006"><rect fill="#F1F1F1" height="52.5938" rx="2.5" ry="2.5" style="stroke:#181818;stroke-width:0.5;" width="146.4307" x="499" y="689"/><text fill="#000000" font-family="monospace" font-size="14" lengthAdjust="spacing" textLength="126.4307" x="509" y="711.9951">sail-o-vision&#160;/</text><text fill="#000000" font-family="monospace" font-size="14" lengthAdjust="spacing" textLength="67.4297" x="509" y="728.292">SafeHelm</text></g><!--entity transponder--><g class="entity" data-qualified-name="transponder" data-source-line="14" id="ent0007"><rect fill="#F1F1F1" height="52.5938" rx="2.5" ry="2.5" style="stroke:#181818;stroke-width:0.5;" width="146.4307" x="271" y="535"/><text fill="#000000" font-family="monospace" font-size="14" lengthAdjust="spacing" textLength="126.4307" x="281" y="557.9951">AIS&#160;Transponder</text><text fill="#000000" font-family="monospace" font-size="14" lengthAdjust="spacing" textLength="126.4307" x="281" y="574.292">(VHF&#160;broadcast)</text></g><!--entity axiom--><g class="entity" data-qualified-name="axiom" data-source-line="15" id="ent0008"><rect fill="#F1F1F1" height="52.5938" rx="2.5" ry="2.5" style="stroke:#181818;stroke-width:0.5;" width="188.5742" x="46.5" y="535"/><text fill="#000000" font-family="monospace" font-size="14" lengthAdjust="spacing" textLength="126.4307" x="56.5" y="557.9951">Raymarine&#160;Axiom</text><text fill="#000000" font-family="monospace" font-size="14" lengthAdjust="spacing" textLength="168.5742" x="56.5" y="574.292">(MFD&#160;/&#160;chartplotter)</text></g><!--entity n2k_bus--><g class="entity" data-qualified-name="n2k_bus" data-source-line="16" id="ent0009"><rect fill="#F1F1F1" height="36.2969" rx="2.5" ry="2.5" style="stroke:#181818;stroke-width:0.5;" width="138.002" x="297" y="384"/><text fill="#000000" font-family="monospace" font-size="14" lengthAdjust="spacing" textLength="118.002" x="307" y="406.9951">N2K&#160;Bus&#160;(can0)</text></g><g class="entity" data-qualified-name="Nn2k_out" data-source-line="70" id="ent0020"><path d="M572,6 L572,121.9297 L827.7998,121.9297 L827.7998,16 L817.7998,6 L572,6" fill="#FEFFDD" style="stroke:#181818;stroke-width:0.5;"/><path d="M817.7998,6 L817.7998,16 L827.7998,16 L817.7998,6" fill="#FEFFDD" style="stroke:#181818;stroke-width:1;"/><text fill="#000000" font-family="monospace" font-size="13" lengthAdjust="spacing" textLength="156.5332" x="578" y="23.0669">Layer&#160;1&#160;(hard&#160;gate):</text><text fill="#000000" font-family="monospace" font-size="13" lengthAdjust="spacing" textLength="203.4932" x="578" y="38.1997">transmitPGNs&#160;whitelist&#160;=&#160;{</text><text fill="#000000" font-family="monospace" font-size="13" lengthAdjust="spacing" textLength="180.0132" x="578" y="53.3325">127250,&#160;128267,&#160;129025,</text><text fill="#000000" font-family="monospace" font-size="13" lengthAdjust="spacing" textLength="234.7998" x="578" y="68.4653">129026,&#160;127245,&#160;128259,130306}</text><text fill="#000000" font-family="monospace" font-size="13" lengthAdjust="spacing" textLength="203.4932" x="578" y="83.5981">exclude&#160;=&#160;{&#160;129038/129039/</text><text fill="#000000" font-family="monospace" font-size="13" lengthAdjust="spacing" textLength="109.5732" x="578" y="98.731">129040/129041}</text><text fill="#000000" font-family="monospace" font-size="13" lengthAdjust="spacing" textLength="133.0532" x="578" y="113.8638">(AIS&#160;vessel&#160;PGNs)</text></g><g class="entity" data-qualified-name="GMN21" data-source-line="81" id="ent0022"><path d="M680.5,680 L680.5,711.5 L645.39,715.5 L680.5,719.5 L680.5,750.5313 A0,0 0 0 0 680.5,750.5313 L951.9531,750.5313 A0,0 0 0 0 951.9531,750.5313 L951.9531,690 L941.9531,680 L680.5,680 A0,0 0 0 0 680.5,680" fill="#FEFFDD" style="stroke:#181818;stroke-width:0.5;"/><path d="M941.9531,680 L941.9531,690 L951.9531,690 L941.9531,680" fill="#FEFFDD" style="stroke:#181818;stroke-width:0.5;"/><text fill="#000000" font-family="monospace" font-size="13" lengthAdjust="spacing" textLength="172.1865" x="686.5" y="697.0669">Layer&#160;4&#160;(MMSI&#160;ranges):</text><text fill="#000000" font-family="monospace" font-size="13" lengthAdjust="spacing" textLength="250.4531" x="686.5" y="712.1997">998xxxxxx&#160;=&#160;radar/sensor-derived</text><text fill="#000000" font-family="monospace" font-size="13" lengthAdjust="spacing" textLength="180.0132" x="686.5" y="727.3325">999xxxxxx&#160;=&#160;camera-only</text><text fill="#000000" font-family="monospace" font-size="13" lengthAdjust="spacing" textLength="211.3198" x="686.5" y="742.4653">Outside&#160;ITU-allocated&#160;space</text></g><!--link safehelm to store--><g class="link" data-entity-1="ent0006" data-entity-2="ent0002" data-link-type="dependency" data-source-line="19" id="lnk10"><path d="M572,688.95 C572,658.75 572,606.97 572,562.5 C572,239.5 572,239.5 572,239.5 C572,198.67 575.34,178.17 544,152 C504.6,119.11 364.1,136.93 315,122 C283.66,112.47 254.7202,97.5898 232.0802,84.5198" fill="none" id="safehelm-to-store" style="stroke:#181818;stroke-width:1;"/><polygon fill="#181818" points="227.75,82.02,233.5445,89.9839,232.0802,84.5198,237.5443,83.0555,227.75,82.02" style="stroke:#181818;stroke-width:1;stroke-linejoin:miter;stroke-miterlimit:10;"/><text fill="#000000" font-family="monospace" font-size="13" lengthAdjust="spacing" textLength="117.3999" x="622.72" y="374.0669">WebSocket&#160;delta</text><text fill="#000000" font-family="monospace" font-size="13" lengthAdjust="spacing" textLength="187.8398" x="587.5" y="389.1997">source:&#160;safehelm.virtual</text><text fill="#000000" font-family="monospace" font-size="13" lengthAdjust="spacing" textLength="203.4932" x="579.6733" y="404.3325">MMSI&#160;998xxxxxx&#160;/&#160;999xxxxxx</text><path d="M577,413.3984 L577,438.3984 L785,438.3984 L785,423.3984 L775,413.3984 L577,413.3984" fill="#FEFFDD" style="stroke:#181818;stroke-width:0.5;"/><path d="M775,413.3984 L775,423.3984 L785,423.3984 L775,413.3984" fill="#FEFFDD" style="stroke:#181818;stroke-width:0.5;"/><text fill="#000000" font-family="monospace" font-size="13" lengthAdjust="spacing" textLength="187.8398" x="583" y="430.4653">Layer&#160;2&#160;(source&#160;tagging)</text></g><!--link store to n2k_out--><g class="link" data-entity-1="ent0002" data-entity-2="ent0003" data-link-type="dependency" data-source-line="26" id="lnk11"><path d="M197.6,82.09 C195.05,107.3 194.19,154.62 218,184 C228.19,196.58 237.1101,204.0106 251.6301,211.5306" fill="none" id="store-to-n2k_out" style="stroke:#181818;stroke-width:1;"/><polygon fill="#181818" points="256.07,213.83,249.9178,206.1391,251.6301,211.5306,246.2387,213.2429,256.07,213.83" style="stroke:#181818;stroke-width:1;stroke-linejoin:miter;stroke-miterlimit:10;"/><text fill="#000000" font-family="monospace" font-size="13" lengthAdjust="spacing" textLength="156.5332" x="219" y="165.0669">vessel&#160;store&#160;entries</text><text fill="#000000" font-family="monospace" font-size="13" lengthAdjust="spacing" textLength="140.8799" x="226.8267" y="180.1997">(real&#160;+&#160;synthetic)</text></g><!--link n2k_out to n2k_bus--><g class="link" data-entity-1="ent0003" data-entity-2="ent0009" data-link-type="dependency" data-source-line="27" id="lnk12"><path d="M366,267.13 C366,299.88 366,350.71 366,378.79" fill="none" id="n2k_out-to-n2k_bus" style="stroke:#181818;stroke-width:1;"/><polygon fill="#181818" points="366,383.79,370,374.79,366,378.79,362,374.79,366,383.79" style="stroke:#181818;stroke-width:1;stroke-linejoin:miter;stroke-miterlimit:10;"/><text fill="#000000" font-family="monospace" font-size="13" lengthAdjust="spacing" textLength="93.9199" x="398.3066" y="312.0669">transmitPGNs</text><text fill="#000000" font-family="monospace" font-size="13" lengthAdjust="spacing" textLength="156.5332" x="374.8267" y="327.1997">(Layer&#160;1:&#160;hard&#160;gate)</text></g><!--link n2k_bus to transponder--><g class="link" data-entity-1="ent0009" data-entity-2="ent0007" data-link-type="dependency" data-source-line="30" id="lnk13"><path d="M358.02,420.1 C352,434 344.24,454.31 341,473 C338.57,487.01 340.62,490.78 341,505 C341.26,514.74 341.5076,520.448 342.0376,529.818" fill="none" id="n2k_bus-to-transponder" style="stroke:#181818;stroke-width:1;"/><polygon fill="#181818" points="342.32,534.81,345.8054,525.5985,342.0376,529.818,337.8181,526.0503,342.32,534.81" style="stroke:#181818;stroke-width:1;stroke-linejoin:miter;stroke-miterlimit:10;"/><text fill="#000000" font-family="monospace" font-size="13" lengthAdjust="spacing" textLength="156.5332" x="365.48" y="486.0669">own-vessel&#160;PGNs&#160;only</text><text fill="#000000" font-family="monospace" font-size="13" lengthAdjust="spacing" textLength="203.4932" x="342" y="501.1997">(no&#160;synthetic&#160;AIS&#160;leakage)</text></g><!--link n2k_bus to axiom--><g class="link" data-entity-1="ent0009" data-entity-2="ent0008" data-link-type="dependency" data-source-line="31" id="lnk14"><path d="M332.06,420.06 C306.75,433.31 271.73,452.78 243,473 C216.1,491.93 191.5721,513.1674 171.6521,531.4674" fill="none" id="n2k_bus-to-axiom" style="stroke:#181818;stroke-width:1;"/><polygon fill="#181818" points="167.97,534.85,177.3039,531.7069,171.6521,531.4674,171.8916,525.8156,167.97,534.85" style="stroke:#181818;stroke-width:1;stroke-linejoin:miter;stroke-miterlimit:10;"/><text fill="#000000" font-family="monospace" font-size="13" lengthAdjust="spacing" textLength="86.0933" x="244" y="493.5669">sensor&#160;data</text></g><!--link store to nmea_out--><g class="link" data-entity-1="ent0002" data-entity-2="ent0004" data-link-type="dependency" data-source-line="34" id="lnk15"><path d="M145.44,82.02 C112.62,95.4 73.53,117.62 54,152 C42.3,172.59 53.2554,192.6754 68.9054,210.2554" fill="none" id="store-to-nmea_out" style="stroke:#181818;stroke-width:1;"/><polygon fill="#181818" points="72.23,213.99,69.2334,204.6081,68.9054,210.2554,63.2581,209.9274,72.23,213.99" style="stroke:#181818;stroke-width:1;stroke-linejoin:miter;stroke-miterlimit:10;"/><text fill="#000000" font-family="monospace" font-size="13" lengthAdjust="spacing" textLength="101.7466" x="55" y="172.5669">all&#160;sentences</text></g><!--link nmea_out to axiom--><g class="link" data-entity-1="ent0004" data-entity-2="ent0008" data-link-type="dependency" data-source-line="38" id="lnk16"><path d="M83.37,267.02 C60.39,305.64 24.08,381.03 46,443 C58.95,479.6 85.0568,509.7039 107.8368,531.4939" fill="none" id="nmea_out-to-axiom" style="stroke:#181818;stroke-width:1;"/><polygon fill="#181818" points="111.45,534.95,107.7112,525.8384,107.8368,531.4939,102.1814,531.6195,111.45,534.95" style="stroke:#181818;stroke-width:1;stroke-linejoin:miter;stroke-miterlimit:10;"/><text fill="#000000" font-family="monospace" font-size="13" lengthAdjust="spacing" textLength="70.4399" x="128.0266" y="381.5669">NMEA&#160;0183</text><path d="M51,390.6328 L51,430.6328 L275,430.6328 L275,400.6328 L265,390.6328 L51,390.6328" fill="#FEFFDD" style="stroke:#181818;stroke-width:0.5;"/><path d="M265,390.6328 L265,400.6328 L275,400.6328 L265,390.6328" fill="#FEFFDD" style="stroke:#181818;stroke-width:0.5;"/><text fill="#000000" font-family="monospace" font-size="13" lengthAdjust="spacing" textLength="187.8398" x="57" y="407.6997">!AIVDM&#160;/&#160;!AIVDO&#160;EXCLUDED</text><text fill="#000000" font-family="monospace" font-size="13" lengthAdjust="spacing" textLength="203.4932" x="57" y="422.8325">(Layer&#160;3:&#160;sentence&#160;filter)</text></g><!--link safehelm to notif--><g class="link" data-entity-1="ent0006" data-entity-2="ent0005" data-link-type="dependency" data-source-line="55" id="lnk17"><path d="M633.08,688.99 C717.62,652.75 860,587.94 860,562.5 C860,239.5 860,239.5 860,239.5 C860,94.23 689.56,176.73 555,122 C523.12,109.03 491.8532,95.6186 465.4132,84.0886" fill="none" id="safehelm-to-notif" style="stroke:#181818;stroke-width:1;"/><polygon fill="#181818" points="460.83,82.09,467.4808,89.3541,465.4132,84.0886,470.6786,82.021,460.83,82.09" style="stroke:#181818;stroke-width:1;stroke-linejoin:miter;stroke-miterlimit:10;"/><text fill="#000000" font-family="monospace" font-size="13" lengthAdjust="spacing" textLength="148.7065" x="861" y="391.5669">PUT&#160;/notifications/</text><text fill="#000000" font-family="monospace" font-size="13" lengthAdjust="spacing" textLength="140.8799" x="864.9133" y="406.6997">safehelm/collision</text><text fill="#000000" font-family="monospace" font-size="13" lengthAdjust="spacing" textLength="93.9199" x="888.3933" y="421.8325">state:&#160;alarm</text></g><!--link notif to n2k_out--><g class="link" data-entity-1="ent0005" data-entity-2="ent0003" data-link-type="dependency" data-source-line="56" id="lnk18"><path d="M416.53,82.05 C406.65,112.84 387.308,173.0992 375.718,209.2092" fill="none" id="notif-to-n2k_out" style="stroke:#181818;stroke-width:1;"/><polygon fill="#181818" points="374.19,213.97,380.7491,206.623,375.718,209.2092,373.1318,204.1782,374.19,213.97" style="stroke:#181818;stroke-width:1;stroke-linejoin:miter;stroke-miterlimit:10;"/><text fill="#000000" font-family="monospace" font-size="13" lengthAdjust="spacing" textLength="140.8799" x="395" y="165.0669">maps&#160;to&#160;PGN&#160;126983</text><text fill="#000000" font-family="monospace" font-size="13" lengthAdjust="spacing" textLength="133.0532" x="398.9133" y="180.1997">(Emergency&#160;Alarm)</text></g><!--link axiom to safehelm--><g class="link" data-entity-1="ent0008" data-entity-2="ent0006" data-link-type="dependency" data-source-line="57" id="lnk19"><path d="M213.63,588.11 C293.15,616.16 415.2146,659.2071 494.7246,687.2471" fill="none" id="axiom-to-safehelm" style="stroke:#181818;stroke-width:1;"/><polygon fill="#181818" points="499.44,688.91,492.2827,682.1444,494.7246,687.2471,489.622,689.689,499.44,688.91" style="stroke:#181818;stroke-width:1;stroke-linejoin:miter;stroke-miterlimit:10;"/><text fill="#000000" font-family="monospace" font-size="13" lengthAdjust="spacing" textLength="78.2666" x="406.48" y="631.0669">PGN&#160;126984</text><text fill="#000000" font-family="monospace" font-size="13" lengthAdjust="spacing" textLength="125.2266" x="383" y="646.1997">(acknowledgment)</text></g><?plantuml-src dLPTJniv57tthxZB2qJBR999e2JQ8j42BIgXg05sfMMrCZCt4pSUExATGBJYl_VQyvcsiDBcPJAsxxddt2-FNGYrv8RdaEXygHKgDtKRYM0mSLnb4fcjZwGuuolfphLoLpn7c6YbxP8dc3B6wBdW6SBEL6IAI_W4KpHhD3lmBuC67VwwGsjHmjHfWty3js3zl-qpL_4d-BnoovM3QwFN8aLph_OIhXuqTz5N2rsmmSqYSZfIEVAur-jr0foA5__ebViES79s0ht-qQ249RIRzzTTYqPmMTeHoayCjHCpaN0dj8BfnZhCYzD-dJqprZfhkP2HZjR2-iFTUpNbC_o8ih2mz3AdbxR5oSKKRWnNbXOAZNSVp-71Q9uctBg2c6iEj6s_y4tEZL089qz2vsGxEJ-bm2HpRjnIQkVG503SxxFlmljkPS57j1MrXvLbR1UYA2AboitHYGI4-agbu0KjkPlxJLOfePVZ8dimXfq_y66gamKwgXFf-BsoUcKI7DV2VriBurPStgl9P7e1ez7HK_WHvz5eLFpVOHHO1F8cXLfGAYxv1Wt4i5UWWUDP9bJMOQXIdmHakmsTOxYwZ8dBPLpfU2SzfJHm9xq5MXyUvyAX51JXGb3GuDMKnKCOww9CYosAcX5eASO6gRP_1Ll5fyCgaygSeaZc8McvSDSVhYpSgzhr62WzAMJSOQSEDWa83CUW7rLKUKQAe840e9NSK4loP0uUtdEkN7cthGg1BOpQc9WhtR06NtWIkU_OpXPKg1K2ARsdtF6APjD3eH9AHOCVGbZs4O5m6MGuL0c6qlhbvEBkT4893ty-mzcVxozlJyzEYLw9DguDO2QaBs5Wh8QCsXGRFbj50rGrB_cXhPSTjKggTlYxrqr9knmGVOap1tfMzjDks-du_qgZeBpCTlSrki1sQy9LYaua6bUcXt8F_VXmT5HbgDsrONnH3AzlRw2hMZFEqjYgJdOJBMKOPhJcg69zHhd9MM6ztIyvNzAeqj2u9ULdEPgCI6-86HbsM96xC3SgEkF6P4WcT8qe_IWnpN8I77ea1Dg8R1wYNyrt2WvK_RpNDDKuR6orNztjy9Ok8x_TZz_41xrzUXx5Xs_ySzIB3_QXtAINm_rmQ7XG73eOxVS7lK7ly3aSmQT4hbBqUE7uuAWR7gDkZJ3iXQLX_xb0tVCjrshB3gqs-GiIQGnVLG5bBuXxLTehmlvJrgkYVfJqCq6j_gbcud6ZY9geNmgjSrdVYPNQ8Uo5ou4qPcY3tkQUU4lBAJVTOZP5DEt4chuzeBa-w4X2NoQ6HtxeqGxTzfQ-7k3YvZQYQQIfoEas21yj3Trl?></g></svg>