<svg xmlns="http://www.w3.org/2000/svg" xmlns:xlink="http://www.w3.org/1999/xlink" contentStyleType="text/css" data-diagram-type="DESCRIPTION" height="759px" preserveAspectRatio="none" style="width:1526px;height:759px;background:#FFFFFF;" version="1.1" viewBox="0 0 1526 759" width="1526px" zoomAndPan="magnify"><?plantuml 1.2026.4?><defs/><g><!--cluster Jetson Orin Nano Super--><g class="cluster" data-qualified-name="Jetson Orin Nano Super" data-source-line="16" id="ent0009"><path d="M886,486 L1072.4316,486 A3.75,3.75 0 0 1 1074.9316,488.5 L1081.9316,508.2969 L1242,508.2969 A2.5,2.5 0 0 1 1244.5,510.7969 L1244.5,741.5 A2.5,2.5 0 0 1 1242,744 L886,744 A2.5,2.5 0 0 1 883.5,741.5 L883.5,488.5 A2.5,2.5 0 0 1 886,486" fill="none" style="stroke:#000000;stroke-width:1.5;"/><line style="stroke:#000000;stroke-width:1.5;" x1="883.5" x2="1081.9316" y1="508.2969" y2="508.2969"/><text fill="#000000" font-family="monospace" font-size="14" font-weight="700" lengthAdjust="spacing" textLength="185.4316" x="887.5" y="500.9951">Jetson&#160;Orin&#160;Nano&#160;Super</text></g><!--entity sov--><g class="entity" data-qualified-name="Jetson Orin Nano Super.sov" data-source-line="17" id="ent0010"><rect fill="#F1F1F1" height="52.5938" rx="2.5" ry="2.5" style="stroke:#181818;stroke-width:0.5;" width="171.7168" x="969.5" y="521"/><text fill="#000000" font-family="monospace" font-size="14" lengthAdjust="spacing" textLength="109.5732" x="979.5" y="543.9951">sail-o-vision</text><text fill="#000000" font-family="monospace" font-size="14" lengthAdjust="spacing" textLength="151.7168" x="979.5" y="560.292">Detection&#160;Pipeline</text></g><!--entity mock--><g class="entity" data-qualified-name="Jetson Orin Nano Super.mock" data-source-line="18" id="ent0011"><rect fill="#D3D3D3" height="52.5938" rx="2.5" ry="2.5" style="stroke:#181818;stroke-width:0.5;" width="205.4316" x="929" y="675"/><text fill="#000000" font-family="monospace" font-size="14" lengthAdjust="spacing" textLength="143.2881" x="939" y="697.9951">Mock&#160;ONVIF&#160;Server</text><text fill="#000000" font-family="monospace" font-size="14" lengthAdjust="spacing" textLength="185.4316" x="939" y="714.292">simulate_operations.py</text></g><!--entity n2k--><g class="entity" data-qualified-name="n2k" data-source-line="5" id="ent0001"><ellipse cx="694.5" cy="49" fill="#F1F1F1" rx="8" ry="8" style="stroke:#181818;stroke-width:0.5;"/><text fill="#000000" font-family="monospace" font-size="14" lengthAdjust="spacing" textLength="109.5732" x="639.7134" y="78.9951">N2K&#160;Bus&#160;(CAN)</text></g><!--entity nmea_udp--><g class="entity" data-qualified-name="nmea_udp" data-source-line="6" id="ent0002"><ellipse cx="749.5" cy="273" fill="#F1F1F1" rx="8" ry="8" style="stroke:#181818;stroke-width:0.5;"/><text fill="#000000" font-family="monospace" font-size="14" lengthAdjust="spacing" textLength="134.8594" x="682.0703" y="302.9951">NMEA&#160;2000&#160;Bridge</text></g><!--entity raynet--><g class="entity" data-qualified-name="raynet" data-source-line="7" id="ent0003"><ellipse cx="1275.5" cy="547.5" fill="#F1F1F1" rx="8" ry="8" style="stroke:#181818;stroke-width:0.5;"/><text fill="#000000" font-family="monospace" font-size="14" lengthAdjust="spacing" textLength="50.5723" x="1250.2139" y="577.4951">Raynet</text></g><!--entity ais700--><g class="entity" data-qualified-name="ais700" data-source-line="9" id="ent0004"><rect fill="#F1F1F1" height="52.5938" rx="2.5" ry="2.5" style="stroke:#181818;stroke-width:0.5;" width="146.4307" x="70.5" y="246.5"/><text fill="#000000" font-family="monospace" font-size="14" lengthAdjust="spacing" textLength="50.5723" x="80.5" y="269.4951">AIS700</text><text fill="#000000" font-family="monospace" font-size="14" lengthAdjust="spacing" textLength="126.4307" x="80.5" y="285.792">AIS&#160;Transceiver</text></g><!--entity ar200--><g class="entity" data-qualified-name="ar200" data-source-line="10" id="ent0005"><rect fill="#F1F1F1" height="52.5938" rx="2.5" ry="2.5" style="stroke:#181818;stroke-width:0.5;" width="62.1436" x="370.5" y="246.5"/><text fill="#000000" font-family="monospace" font-size="14" lengthAdjust="spacing" textLength="42.1436" x="380.5" y="269.4951">AR200</text><text fill="#000000" font-family="monospace" font-size="14" lengthAdjust="spacing" textLength="33.7148" x="380.5" y="285.792">AHRS</text></g><!--entity radar--><g class="entity" data-qualified-name="radar" data-source-line="11" id="ent0006"><rect fill="#F1F1F1" height="52.5938" rx="2.5" ry="2.5" style="stroke:#181818;stroke-width:0.5;" width="95.8584" x="543.5" y="246.5"/><text fill="#000000" font-family="monospace" font-size="14" lengthAdjust="spacing" textLength="75.8584" x="553.5" y="269.4951">Quantum&#160;2</text><text fill="#000000" font-family="monospace" font-size="14" lengthAdjust="spacing" textLength="42.1436" x="553.5" y="285.792">Radar</text></g><!--entity axiom--><g class="entity" data-qualified-name="axiom" data-source-line="12" id="ent0007"><rect fill="#F1F1F1" height="52.5938" rx="2.5" ry="2.5" style="stroke:#181818;stroke-width:0.5;" width="146.4307" x="1091.5" y="246.5"/><text fill="#000000" font-family="monospace" font-size="14" lengthAdjust="spacing" textLength="126.4307" x="1101.5" y="269.4951">Raymarine&#160;Axiom</text><text fill="#000000" font-family="monospace" font-size="14" lengthAdjust="spacing" textLength="25.2861" x="1101.5" y="285.792">MFD</text></g><!--entity signalk--><g class="entity" data-qualified-name="signalk" data-source-line="14" id="ent0008"><rect fill="#F1F1F1" height="52.5938" rx="2.5" ry="2.5" style="stroke:#181818;stroke-width:0.5;" width="146.4307" x="893.5" y="246.5"/><text fill="#000000" font-family="monospace" font-size="14" lengthAdjust="spacing" textLength="126.4307" x="903.5" y="269.4951">Signal&#160;K&#160;Server</text><text fill="#000000" font-family="monospace" font-size="14" lengthAdjust="spacing" textLength="42.1436" x="903.5" y="285.792">:3000</text></g><!--entity m300c--><g class="entity" data-qualified-name="m300c" data-source-line="21" id="ent0012"><rect fill="#F1F1F1" height="52.5938" rx="2.5" ry="2.5" style="stroke:#181818;stroke-width:0.5;" width="104.2871" x="1281.5" y="246.5"/><text fill="#000000" font-family="monospace" font-size="14" lengthAdjust="spacing" textLength="84.2871" x="1291.5" y="269.4951">FLIR&#160;M300C</text><text fill="#000000" font-family="monospace" font-size="14" lengthAdjust="spacing" textLength="84.2871" x="1291.5" y="285.792">PTZ&#160;Camera</text></g><!--entity vhf--><g class="entity" data-qualified-name="vhf" data-source-line="22" id="ent0013"><rect fill="#F1F1F1" height="52.5938" rx="2.5" ry="2.5" style="stroke:#181818;stroke-width:0.5;" width="129.5732" x="78.5" y="521"/><text fill="#000000" font-family="monospace" font-size="14" lengthAdjust="spacing" textLength="92.7158" x="88.5" y="543.9951">VHF&#160;156&#160;MHz</text><text fill="#000000" font-family="monospace" font-size="14" lengthAdjust="spacing" textLength="109.5732" x="88.5" y="560.292">AIS&#160;Broadcast</text></g><g class="entity" data-qualified-name="GMN36" data-source-line="56" id="ent0037"><path d="M6,6 L6,91.6641 A0,0 0 0 0 6,91.6641 L115.99,91.6641 L140.16,246.42 L123.99,91.6641 L222.6665,91.6641 A0,0 0 0 0 222.6665,91.6641 L222.6665,16 L212.6665,6 L6,6 A0,0 0 0 0 6,6" fill="#FEFFDD" style="stroke:#181818;stroke-width:0.5;"/><path d="M212.6665,6 L212.6665,16 L222.6665,16 L212.6665,6" fill="#FEFFDD" style="stroke:#181818;stroke-width:0.5;"/><text fill="#000000" font-family="monospace" font-size="13" lengthAdjust="spacing" textLength="172.1865" x="12" y="23.0669">PGNs&#160;129038/129039&#160;are</text><text fill="#000000" font-family="monospace" font-size="13" lengthAdjust="spacing" textLength="187.8398" x="12" y="38.1997">TRANSMIT&#160;only&#160;on&#160;AIS700.</text><text fill="#000000" font-family="monospace" font-size="13" lengthAdjust="spacing" textLength="195.6665" x="12" y="53.3325">Synthetic&#160;contacts&#160;on&#160;bus</text><text fill="#000000" font-family="monospace" font-size="13" lengthAdjust="spacing" textLength="156.5332" x="12" y="68.4653">are&#160;ignored&#160;&#8212;&#160;no&#160;ITU</text><text fill="#000000" font-family="monospace" font-size="13" lengthAdjust="spacing" textLength="140.8799" x="12" y="83.5981">re-broadcast&#160;risk.</text></g><g class="entity" data-qualified-name="GMN39" data-source-line="64" id="ent0040"><path d="M535,512 L535,582.5313 L829.9331,582.5313 L829.9331,522 L819.9331,512 L535,512" fill="#FEFFDD" style="stroke:#181818;stroke-width:0.5;"/><path d="M819.9331,512 L819.9331,522 L829.9331,522 L819.9331,512" fill="#FEFFDD" style="stroke:#181818;stroke-width:1;"/><text fill="#000000" font-family="monospace" font-size="13" lengthAdjust="spacing" textLength="273.9331" x="541" y="529.0669">Various&#160;devices&#160;possible,&#160;including</text><text fill="#000000" font-family="monospace" font-size="13" lengthAdjust="spacing" textLength="133.0532" x="541" y="544.1997">-&#160;Actisense&#160;NGT-1</text><text fill="#000000" font-family="monospace" font-size="13" lengthAdjust="spacing" textLength="133.0532" x="541" y="559.3325">-&#160;Actisense&#160;W2K-1</text><text fill="#000000" font-family="monospace" font-size="13" lengthAdjust="spacing" textLength="180.0132" x="541" y="574.4653">-&#160;Yacht&#160;Devices&#160;YDWG-02</text></g><!--link n2k to ais700--><g class="link" data-entity-1="ent0001" data-entity-2="ent0004" data-link-type="association" data-source-line="25" id="lnk15"><path d="M685.42,50.05 C624.32,50.6 273.27,56.58 194.5,122 C157.26,152.93 147.12,212.23 144.42,246.27" fill="none" id="n2k-ais700" style="stroke:#181818;stroke-width:1;"/><text fill="#000000" font-family="monospace" font-size="13" lengthAdjust="spacing" textLength="164.3599" x="207.24" y="157.5669">TX:&#160;PGN&#160;129038/129039</text><text fill="#000000" font-family="monospace" font-size="13" lengthAdjust="spacing" textLength="156.5332" x="211.1533" y="172.6997">(AIS&#160;vessel&#160;reports)</text><text fill="#000000" font-family="monospace" font-size="13" lengthAdjust="spacing" textLength="187.8398" x="195.5" y="187.8325">TX:&#160;PGN&#160;127250&#160;(heading)</text></g><!--link n2k to ar200--><g class="link" data-entity-1="ent0001" data-entity-2="ent0005" data-link-type="association" data-source-line="26" id="lnk17"><path d="M685.38,50.95 C641.31,55.74 451.16,78.72 414.5,122 C385.1,156.71 389.66,213.53 395.6,246.37" fill="none" id="n2k-ar200" style="stroke:#181818;stroke-width:1;"/><text fill="#000000" font-family="monospace" font-size="13" lengthAdjust="spacing" textLength="109.5732" x="435.0667" y="165.0669">TX:&#160;PGN&#160;127257</text><text fill="#000000" font-family="monospace" font-size="13" lengthAdjust="spacing" textLength="148.7065" x="415.5" y="180.1997">(Attitude&#160;10Hz&#160;&#8804;1&#176;)</text></g><!--link n2k to radar--><g class="link" data-entity-1="ent0001" data-entity-2="ent0006" data-link-type="association" data-source-line="27" id="lnk19"><path d="M685.47,52.64 C663.35,59.64 606.64,81.04 584.5,122 C563.3,161.22 573.54,214.97 582.69,246.34" fill="none" id="n2k-radar" style="stroke:#181818;stroke-width:1;"/><text fill="#000000" font-family="monospace" font-size="13" lengthAdjust="spacing" textLength="109.5732" x="612.8933" y="165.0669">TX:&#160;PGN&#160;128520</text><text fill="#000000" font-family="monospace" font-size="13" lengthAdjust="spacing" textLength="164.3599" x="585.5" y="180.1997">(Tracked&#160;Target&#160;Data)</text></g><!--link n2k to axiom--><g class="link" data-entity-1="ent0001" data-entity-2="ent0007" data-link-type="association" data-source-line="28" id="lnk21"><path d="M703.52,52.65 C732.2,61.19 823.61,89.35 895.5,122 C979.24,160.03 1071.88,214.67 1123.67,246.43" fill="none" id="n2k-axiom" style="stroke:#181818;stroke-width:1;"/><text fill="#000000" font-family="monospace" font-size="13" lengthAdjust="spacing" textLength="164.3599" x="1084.0667" y="135.0669">RX:&#160;PGN&#160;129038/129039</text><text fill="#000000" font-family="monospace" font-size="13" lengthAdjust="spacing" textLength="187.8398" x="1072.3267" y="150.1997">(synthetic&#160;AIS&#160;contacts)</text><text fill="#000000" font-family="monospace" font-size="13" lengthAdjust="spacing" textLength="164.3599" x="1084.0667" y="165.3325">RX:&#160;PGN&#160;129809/129810</text><text fill="#000000" font-family="monospace" font-size="13" lengthAdjust="spacing" textLength="148.7065" x="1091.8933" y="180.4653">(vessel&#160;name&#160;label)</text><text fill="#000000" font-family="monospace" font-size="13" lengthAdjust="spacing" textLength="172.1865" x="1080.1533" y="195.5981">RX:&#160;PGN&#160;126983&#160;(Alert)</text><text fill="#000000" font-family="monospace" font-size="13" lengthAdjust="spacing" textLength="203.4932" x="1064.5" y="210.731">TX:&#160;PGN&#160;126984&#160;(Alert&#160;ACK)</text></g><!--link n2k to signalk--><g class="link" data-entity-1="ent0001" data-entity-2="ent0008" data-link-type="association" data-source-line="29" id="lnk23"><path d="M703.51,53.88 C725.34,63.52 782.34,90.11 823.5,122 C872.42,159.9 920.16,214.59 946.22,246.39" fill="none" id="n2k-signalk" style="stroke:#181818;stroke-width:1;"/></g><!--link n2k to nmea_udp--><g class="link" data-entity-1="ent0001" data-entity-2="ent0002" data-link-type="association" data-source-line="30" id="lnk25"><path d="M703.76,56.68 C718.67,68.09 747.45,92.92 758.5,122 C777.88,172.97 759.62,240.69 752.26,263.84" fill="none" id="n2k-nmea_udp" style="stroke:#181818;stroke-width:1;"/><text fill="#000000" font-family="monospace" font-size="13" lengthAdjust="spacing" textLength="46.96" x="768.5" y="172.5669">bridge</text></g><!--link m300c to raynet--><g class="link" data-entity-1="ent0012" data-entity-2="ent0003" data-link-type="association" data-source-line="33" id="lnk26"><path d="M1328.77,299.77 C1321.79,337.31 1308.09,409.22 1294.5,470 C1288.89,495.11 1281.27,524.6 1277.62,538.49" fill="none" id="m300c-raynet" style="stroke:#181818;stroke-width:1;"/><text fill="#000000" font-family="monospace" font-size="13" lengthAdjust="spacing" textLength="70.4399" x="1381.2" y="398.0669">ONVIF&#160;PTZ</text><text fill="#000000" font-family="monospace" font-size="13" lengthAdjust="spacing" textLength="187.8398" x="1322.5" y="413.1997">AbsoluteMove&#160;/&#160;GetStatus</text></g><!--link sov to raynet--><g class="link" data-entity-1="ent0010" data-entity-2="ent0003" data-link-type="association" data-source-line="34" id="lnk27"><path d="M1141.87,547.5 C1183.37,547.5 1224.87,547.5 1266.36,547.5" fill="none" id="sov-raynet" style="stroke:#181818;stroke-width:1;"/></g><!--link axiom to raynet--><g class="link" data-entity-1="ent0007" data-entity-2="ent0003" data-link-type="association" data-source-line="35" id="lnk28"><path d="M1220.58,299.76 C1233.37,308.24 1245.53,318.93 1253.5,332 C1296,401.67 1282.07,508.23 1277,538.33" fill="none" id="axiom-raynet" style="stroke:#181818;stroke-width:1;"/></g><!--link nmea_udp to sov--><g class="link" data-entity-1="ent0002" data-entity-2="ent0010" data-link-type="dependency" data-source-line="39" id="lnk30"><path d="M742.9138,286.5318 C727.7638,316.1618 682.75,415.56 733.5,470 C742.16,479.29 835.04,475.55 847.5,478 C896.93,487.72 946.2243,503.9853 986.8043,519.0953" fill="none" id="nmea_udp-sov" style="stroke:#181818;stroke-width:1;"/><polygon fill="#181818" points="745.19,282.08,737.5313,288.2723,742.9138,286.5318,744.6542,291.9143,745.19,282.08" style="stroke:#181818;stroke-width:1;stroke-linejoin:miter;stroke-miterlimit:10;"/><polygon fill="#181818" points="991.49,520.84,984.4515,513.9509,986.8043,519.0953,981.6599,521.4481,991.49,520.84" style="stroke:#181818;stroke-width:1;stroke-linejoin:miter;stroke-miterlimit:10;"/><text fill="#000000" font-family="monospace" font-size="13" lengthAdjust="spacing" textLength="273.9331" x="734.5" y="345.0669">RX:&#160;PGN&#160;129038/129039&#160;(AIS&#160;targets)</text><text fill="#000000" font-family="monospace" font-size="13" lengthAdjust="spacing" textLength="234.7998" x="754.0667" y="360.1997">RX:&#160;PGN&#160;128520&#160;(radar&#160;targets)</text><text fill="#000000" font-family="monospace" font-size="13" lengthAdjust="spacing" textLength="187.8398" x="777.5466" y="375.3325">RX:&#160;PGN&#160;127250&#160;(heading)</text><text fill="#000000" font-family="monospace" font-size="13" lengthAdjust="spacing" textLength="226.9731" x="757.98" y="390.4653">RX:&#160;PGN&#160;129025&#160;(own&#160;position)</text><text fill="#000000" font-family="monospace" font-size="13" lengthAdjust="spacing" textLength="195.6665" x="773.6333" y="405.5981">RX:&#160;PGN&#160;127257&#160;(attitude)</text><text fill="#000000" font-family="monospace" font-size="13" lengthAdjust="spacing" textLength="164.3599" x="789.2866" y="420.731">TX:&#160;PGN&#160;129038/129039</text><text fill="#000000" font-family="monospace" font-size="13" lengthAdjust="spacing" textLength="156.5332" x="793.2" y="435.8638">(synthetic&#160;contacts)</text><text fill="#000000" font-family="monospace" font-size="13" lengthAdjust="spacing" textLength="164.3599" x="789.2866" y="450.9966">TX:&#160;PGN&#160;129809/129810</text><text fill="#000000" font-family="monospace" font-size="13" lengthAdjust="spacing" textLength="172.1865" x="785.3733" y="466.1294">TX:&#160;PGN&#160;126983&#160;(Alert)</text></g><!--link signalk to sov--><g class="link" data-entity-1="ent0008" data-entity-2="ent0010" data-link-type="dependency" data-source-line="42" id="lnk32"><path d="M997.0661,303.2763 C1005.5961,312.6963 1010.88,320.24 1016.5,332 C1046.68,395.18 1053.4277,474.0733 1054.9477,515.7333" fill="none" id="signalk-sov" style="stroke:#181818;stroke-width:1;"/><polygon fill="#181818" points="993.71,299.57,996.786,308.9262,997.0661,303.2763,1002.716,303.5564,993.71,299.57" style="stroke:#181818;stroke-width:1;stroke-linejoin:miter;stroke-miterlimit:10;"/><polygon fill="#181818" points="1055.13,520.73,1058.7992,511.5901,1054.9477,515.7333,1050.8045,511.8818,1055.13,520.73" style="stroke:#181818;stroke-width:1;stroke-linejoin:miter;stroke-miterlimit:10;"/><text fill="#000000" font-family="monospace" font-size="13" lengthAdjust="spacing" textLength="62.6133" x="1118.0266" y="390.5669">populate</text><text fill="#000000" font-family="monospace" font-size="13" lengthAdjust="spacing" textLength="125.2266" x="1086.72" y="405.6997">safehelm.virtual</text><text fill="#000000" font-family="monospace" font-size="13" lengthAdjust="spacing" textLength="195.6665" x="1051.5" y="420.8325">(802.3/802.11&#160;IP&#160;Network)</text></g><!--link ais700 to vhf--><g class="link" data-entity-1="ent0004" data-entity-2="ent0013" data-link-type="dependency" data-source-line="49" id="lnk33"><path d="M143.5,304.64 C143.5,356.57 143.5,463.69 143.5,515.73" fill="none" id="ais700-vhf" style="stroke:#181818;stroke-width:1;"/><polygon fill="#181818" points="143.5,299.64,139.5,308.64,143.5,304.64,147.5,308.64,143.5,299.64" style="stroke:#181818;stroke-width:1;stroke-linejoin:miter;stroke-miterlimit:10;"/><polygon fill="#181818" points="143.5,520.73,147.5,511.73,143.5,515.73,139.5,511.73,143.5,520.73" style="stroke:#181818;stroke-width:1;stroke-linejoin:miter;stroke-miterlimit:10;"/><text fill="#000000" font-family="monospace" font-size="13" lengthAdjust="spacing" textLength="46.96" x="218.8533" y="390.5669">SOTDMA</text><text fill="#000000" font-family="monospace" font-size="13" lengthAdjust="spacing" textLength="140.8799" x="171.8933" y="405.6997">(own&#160;vessel&#160;only&#160;&#8212;</text><text fill="#000000" font-family="monospace" font-size="13" lengthAdjust="spacing" textLength="195.6665" x="144.5" y="420.8325">no&#160;relay&#160;of&#160;N2K&#160;contacts)</text></g><!--link sov to mock--><g class="link" data-entity-1="ent0010" data-entity-2="ent0011" data-link-type="dependency" data-source-line="52" id="lnk34"><path d="M975.18,574.16 C957.86,583.57 941.7,596.2 931.5,613 C924.12,625.16 924.28,632.74 931.5,645 C938.8,657.41 945.7545,664.5829 958.0445,672.2929" fill="none" id="sov-to-mock" style="stroke:#181818;stroke-width:1;stroke-dasharray:7,7;"/><polygon fill="#181818" points="962.28,674.95,956.7817,666.7788,958.0445,672.2929,952.5303,673.5556,962.28,674.95" style="stroke:#181818;stroke-width:1;stroke-linejoin:miter;stroke-miterlimit:10;"/><text fill="#000000" font-family="monospace" font-size="13" lengthAdjust="spacing" textLength="86.0933" x="932.5" y="633.5669">ONVIF&#160;(sim)</text></g><!--link mock to sov--><g class="link" data-entity-1="ent0011" data-entity-2="ent0010" data-link-type="dependency" data-source-line="53" id="lnk35"><path d="M1035.55,674.84 C1039.97,646.86 1046.2197,607.2587 1050.6497,579.2187" fill="none" id="mock-to-sov" style="stroke:#181818;stroke-width:1;stroke-dasharray:7,7;"/><polygon fill="#181818" points="1051.43,574.28,1046.0745,582.5455,1050.6497,579.2187,1053.9765,583.794,1051.43,574.28" style="stroke:#181818;stroke-width:1;stroke-linejoin:miter;stroke-miterlimit:10;"/><text fill="#000000" font-family="monospace" font-size="13" lengthAdjust="spacing" textLength="78.2666" x="1088.5466" y="626.0669">RTSP&#160;(sim)</text><text fill="#000000" font-family="monospace" font-size="13" lengthAdjust="spacing" textLength="164.3599" x="1045.5" y="641.1997">alternate&#160;video&#160;clips</text></g><!--link nmea_udp to GMN39--><g class="link" data-entity-1="ent0002" data-entity-2="ent0040" data-link-type="association" data-source-line="64" id="lnk41"><path d="M740.78,282.06 C730.16,292.46 712.65,311.65 704.5,332 C680.56,391.77 678.86,468.05 680.32,511.68" fill="none" id="nmea_udp-GMN39" style="stroke:#181818;stroke-width:1;stroke-dasharray:7,7;"/></g><?plantuml-src ZLNTRkj44BxtKupAHLC9fuvBJzEggfJJq2QKf24sFHm8EjhOqsGLPzVQNUUGWv2uGk8MyGWy0C_0e_H9cFKwFowjn4tixFpiDpFVVDOBBdAcs18IkSobG64YiyuG52Q6YLc6djwwfFZ8YipSI666R8ama4Bgd2MOUXuN1jKZlSF1CBo3juM6ndLdU7G0J8C85pM7mPST28CWWBUAfpDqFaja7ueqttSSixL0KvfL-UfvMvZmGwSVdGN1HD0JOiM4Jf2lKFretHdNPAjvZyFIkJUEd8SAwmxV54oOOWdXH8nPobmUPT_slGZIaYak43e_SRcSYC5Dr-MpVslu8ZuJB8CxY50HhecuEA6QIsTTcXQUHzrRi1cL-XKQBGNSKseOCY4XAd9K1_2p1x2NKpEU-T9VSSsbc8Wk6feJlSA8vvWHB9TUhkfX0vaiu7xuqB_PWj5yMMJCu0T9zp2RGpVpTHc-jDwVPNmsDpE5Q--NMbatN_V7CA1IhYTY57yFrqG5nLmWdIRxlW-z6sYTle51xvERqribMPemRKh_rVpHymx1zttOa2QHGhYIj3ttt231BtBVqWWku23-xW96jqDeXUV1IVkuV9nFHCFcNw7Mc15xSwcCFfg8dVDPU1f0OuuivM9sTE2L17WbCVcUsOp6S5Ea2AsWzmcUVl-hzS_V55cIufN8zcb8B6iG7vC5fX0pDKC3NMQOlT9of1OuVgKMlHPcZeOdOAkYfXYMbFNi1RI3SnlGRjaBgyA5tSkCJJ6h-RuvRvz0evEXChMUqFaNrJbqhky8OiNC7KXlivWrt5EtkDNqV72R2jCN9bYI0lnKVXH-jSOsWsCZ4OY8CTKoAmmEv0hX66wHD8YPGXCQkG9VMI9kGpTDhENRiCZskLTCOQGanDSZS31B68VfFAVJIz-_sccDpNzfwzgTlJeLA0bcoe7M9s5d3Wt7YfViTURLPXY4fz2WIY2NcjkUFGyyWmQhM5YRt6jqsQDA_39LuXTPiHabr1G6ddxx0xOwPjkurx4DLQXXkSnBCI5POOyunspPN75b2fOHk7OGDa-ExM-h1VqH3D5yb6gnkx8K4yX8lDsat1rqWwFE_oCBzIsEHj3eTM75KvIK_h2YdiLAAUrWdxjK2Dod1AnSxOdEfIFPbTKf6ntTnzr1Xogo0wiMJefi3K-__ZaHfDaACxO6-LYgsNOIsriY9xbIGIDbUexfqRQbpUQLazrjiGqIQ0ej3wsrLe6rJQZvzAKKr7PN3YGPpsbfF27foCZS8ga-X617hfyHcYaaGppk3AD1FtQbqCnTCvfaYlv3Askd9ISR1GCHG2fIEQeVgFn-_2qP5FhJZSg3udhHz52aO45LqARI65fXGhTTH807-gfAaeyKLpn1RHT2ysc6dmCNILROrI4l6XL9YqQX4OQtiTzwTlOklAlEthDaJi9RPNlVVNVh1-4EoRy0?></g></svg>